<?xml version="1.0" encoding="UTF-8"?>
<!-- TAMPA TARUNO logo - traced from _LOGO/LOGO colored.png (Z1, 2026-07-12) -->
<svg xmlns="http://www.w3.org/2000/svg" viewBox="0 0 1532 1427">
  <g fill="#000000" fill-rule="evenodd">
    <path d="M 789.500 140.048 C 777.520 140.952, 765.837 142.361, 756.587 144.019 C 742.097 146.616, 716.863 154.263, 705.220 159.586 C 702.317 160.914, 699.707 162, 699.421 162 C 698.407 162, 677.434 172.683, 673.270 175.321 C 670.943 176.794, 668.815 178, 668.539 178 C 668.264 178, 665.494 179.688, 662.385 181.750 C 659.275 183.813, 656.019 185.950, 655.150 186.500 C 653.201 187.733, 634.403 201.810, 631.081 204.524 C 609.370 222.260, 587.984 244.321, 573.417 264.004 C 566.519 273.325, 553 293.573, 553 294.583 C 553 294.865, 551.411 297.580, 549.468 300.617 C 543.057 310.640, 530.907 335.679, 524.537 352 C 522.497 357.225, 520.468 362.400, 520.028 363.500 C 519.588 364.600, 518.675 367.525, 518 370 C 517.325 372.475, 516.394 375.400, 515.933 376.500 C 514.343 380.289, 508.830 400.978, 507.877 406.734 C 506.501 415.039, 505.481 420.207, 502.985 431.500 C 501.770 437, 500.133 444.650, 499.347 448.500 C 497.585 457.128, 496.438 462.592, 494.623 471 C 490.939 488.066, 486.669 508.948, 486.034 513 C 485.647 515.475, 484.835 519.300, 484.230 521.500 C 483.625 523.700, 481.961 531.350, 480.532 538.500 C 479.103 545.650, 477.086 555.100, 476.049 559.500 C 475.012 563.900, 473.644 570.425, 473.007 574 C 472.371 577.575, 471.242 583.200, 470.498 586.500 C 467.944 597.830, 466.146 606.514, 464.493 615.500 C 463.583 620.450, 462.425 625.882, 461.919 627.571 C 461.414 629.260, 461 631.818, 461 633.256 C 461 634.694, 460.522 637.127, 459.938 638.664 C 459.353 640.201, 458.249 644.842, 457.483 648.979 C 456.717 653.116, 455.374 659.650, 454.498 663.500 C 453.622 667.350, 452.480 672.750, 451.959 675.500 C 449.533 688.315, 448.262 694.463, 441.931 724 C 440.221 731.975, 438.447 740.750, 437.989 743.500 C 437.531 746.250, 435.490 755.700, 433.454 764.500 C 429.789 780.339, 428.846 784.794, 427.101 794.500 C 426.053 800.334, 423.961 810.467, 420.908 824.500 C 418.660 834.834, 417.898 838.617, 416.175 848 C 415.619 851.025, 414.742 854.625, 414.226 856 C 413.710 857.375, 413.485 859.063, 413.727 859.750 C 414.370 861.578, 538.287 861.578, 539.769 859.750 C 540.327 859.063, 541.958 852.425, 543.395 845 C 544.831 837.575, 546.641 828.800, 547.416 825.500 C 548.192 822.200, 549.284 817.250, 549.844 814.500 C 553.369 797.176, 555.391 787.867, 556.610 783.346 C 557.374 780.511, 558 777.168, 558 775.917 C 558 774.666, 558.413 772.260, 558.918 770.571 C 559.424 768.882, 560.355 764.800, 560.988 761.500 C 561.622 758.200, 562.798 752.575, 563.602 749 C 566.217 737.378, 569.423 721.756, 570.887 713.500 C 571.374 710.750, 573.411 700.850, 575.414 691.500 C 577.416 682.150, 579.298 673.150, 579.595 671.500 C 579.892 669.850, 580.741 665.800, 581.481 662.500 C 582.221 659.200, 583.290 654.250, 583.857 651.500 C 588.233 630.278, 589.190 625.915, 590.442 621.500 C 591.221 618.750, 592.390 613.125, 593.039 609 C 593.688 604.875, 594.593 600.150, 595.050 598.500 C 595.506 596.850, 596.825 590.775, 597.981 585 C 599.137 579.225, 600.703 572.025, 601.461 569 C 602.219 565.975, 603.301 561.025, 603.865 558 C 605.316 550.225, 607.884 537.936, 610.134 528 C 612.184 518.952, 613.447 512.924, 614.899 505.250 C 616.008 499.391, 618.623 487.116, 621.023 476.500 C 622.018 472.100, 623.337 466.025, 623.955 463 C 633.021 418.632, 638.815 400.174, 651.891 374 C 667.019 343.721, 688.702 316.293, 711.500 298.596 C 714.800 296.034, 718.057 293.490, 718.737 292.942 C 721.860 290.426, 738.164 280.986, 744.174 278.214 C 752.582 274.335, 764.894 270.374, 776.500 267.813 C 789.679 264.904, 817.791 264.945, 830.718 267.890 C 841.145 270.266, 849.314 273.070, 856.154 276.622 C 857.614 277.380, 859.286 278, 859.869 278 C 861.815 278, 876.408 287.350, 884 293.462 C 906.477 311.557, 922.201 332.949, 931.438 358 C 932.959 362.125, 934.608 366.281, 935.102 367.236 C 935.596 368.191, 936.003 369.766, 936.006 370.736 C 936.009 371.706, 936.480 374.188, 937.053 376.250 L 938.094 380 1001.676 380 L 1065.258 380 1064.580 372.750 C 1063.364 359.741, 1057.236 333.412, 1053.877 326.764 C 1053.395 325.809, 1053 324.433, 1053 323.708 C 1053 322.982, 1051.407 318.364, 1049.461 313.444 C 1047.514 308.525, 1045.565 303.600, 1045.129 302.500 C 1043.508 298.407, 1027.451 266.748, 1026.188 265.155 C 1025.088 263.768, 1016.961 251.550, 1013.500 246.080 C 1012.950 245.211, 1012.273 244.275, 1011.996 244 C 1011.719 243.725, 1008.807 240.125, 1005.526 236 C 985.775 211.170, 953.363 184.124, 926.500 170.058 C 922.100 167.754, 917.825 165.466, 917 164.974 C 912.142 162.075, 895.943 155.386, 883.500 151.140 C 857.133 142.143, 819.930 137.753, 789.500 140.048 M 1111.358 567.236 C 1111.106 567.641, 1113.972 571.016, 1117.728 574.736 C 1126.022 582.952, 1127.913 585.258, 1133.731 594.251 C 1149.927 619.287, 1155.631 653.362, 1149.005 685.500 C 1142.458 717.257, 1130.788 741.304, 1108.238 769.500 C 1100.183 779.573, 1075.922 804.010, 1068.500 809.527 C 1066.301 811.162, 1062.113 814.419, 1059.194 816.765 C 1056.275 819.110, 1047.050 825.509, 1038.693 830.985 C 1030.337 836.461, 1022.711 841.517, 1021.746 842.221 C 1020.434 843.178, 1018.493 850.808, 1014.045 872.500 C 1010.774 888.450, 1006.682 908.025, 1004.953 916 C 1003.223 923.975, 1001.438 932.574, 1000.987 935.108 C 1000.535 937.642, 999.710 941.467, 999.154 943.608 C 998.598 945.749, 997.403 951.325, 996.499 956 C 995.596 960.675, 994.246 966.975, 993.499 970 C 990.694 981.366, 989.700 987.033, 990.389 987.722 C 991.050 988.383, 996.641 986.786, 1005 983.548 C 1006.925 982.802, 1012.325 980.760, 1017 979.009 C 1021.675 977.258, 1026.850 975.244, 1028.500 974.533 C 1030.150 973.822, 1036 971.314, 1041.500 968.961 C 1070.820 956.413, 1107.867 934.670, 1136.500 913.203 C 1169.757 888.270, 1207.205 848.438, 1228.748 815.081 C 1242.515 793.765, 1258.586 759.553, 1264.486 739 C 1268.433 725.253, 1269.319 721.919, 1270.602 716 C 1275.451 693.619, 1276.359 684.131, 1276.393 655.500 C 1276.420 632.724, 1276.089 625.634, 1274.617 617.500 C 1272.676 606.777, 1269.469 592.385, 1267.930 587.500 C 1262.098 568.976, 1261.340 567.243, 1258.709 566.408 C 1255.927 565.525, 1111.920 566.334, 1111.358 567.236 M 171.436 893.750 C 171.105 895.263, 170.225 898.525, 169.482 901 C 167.800 906.599, 166.127 913.968, 165.055 920.500 C 164.604 923.250, 163.754 927.300, 163.166 929.500 C 162.578 931.700, 161.378 937.100, 160.501 941.500 C 159.623 945.900, 158.270 951.750, 157.494 954.500 C 156.718 957.250, 155.906 960.850, 155.690 962.500 C 155.474 964.150, 154.142 970.675, 152.731 977 C 151.320 983.325, 149.863 990.300, 149.493 992.500 C 149.123 994.700, 148.470 996.950, 148.041 997.500 C 147.612 998.050, 146.973 1000.525, 146.621 1003 C 146.268 1005.475, 145.710 1009.188, 145.380 1011.250 C 144.991 1013.689, 145.169 1015.001, 145.891 1015.003 C 146.501 1015.005, 291.787 1015.009, 468.750 1015.012 C 766.150 1015.018, 790.591 1014.894, 791.709 1013.374 C 792.374 1012.470, 793.178 1009.653, 793.497 1007.115 C 793.815 1004.577, 794.582 1000.700, 795.202 998.500 C 795.822 996.300, 796.682 992.475, 797.113 990 C 797.543 987.525, 798.556 982.575, 799.363 979 C 800.171 975.425, 801.545 968.968, 802.418 964.651 C 803.290 960.334, 804.251 956.403, 804.552 955.916 C 804.854 955.428, 805.567 952.435, 806.139 949.264 C 808.108 938.337, 808.906 934.446, 812.552 918 C 814.564 908.925, 816.430 899.138, 816.698 896.250 L 817.185 891 494.612 891 L 172.038 891 171.436 893.750"/>
  </g>
  <g fill="#830401" fill-rule="evenodd">
    <path d="M 668.167 413.750 C 667.670 414.712, 666.950 417.300, 666.568 419.500 C 666.186 421.700, 665.238 426.425, 664.463 430 C 663.687 433.575, 661.899 441.900, 660.488 448.500 C 659.077 455.100, 657.490 462.413, 656.962 464.750 C 656.433 467.087, 655.566 470.913, 655.035 473.250 C 654.504 475.587, 653.560 480.200, 652.937 483.500 C 652.314 486.800, 651.226 492.200, 650.520 495.500 C 649.814 498.800, 648.684 504.200, 648.010 507.500 C 647.335 510.800, 645.890 517.392, 644.799 522.149 C 643.707 526.906, 642.975 531.631, 643.171 532.649 C 643.517 534.445, 653.029 534.506, 964.893 534.716 C 1165.123 534.850, 1286.925 534.576, 1288.024 533.987 C 1290.170 532.838, 1292 527.913, 1292 523.285 C 1292 521.406, 1292.435 519.056, 1292.966 518.064 C 1293.497 517.071, 1294.360 513.838, 1294.883 510.880 C 1295.406 507.921, 1296.814 501.225, 1298.011 496 C 1299.208 490.775, 1300.500 484.473, 1300.883 481.996 C 1301.265 479.518, 1301.881 477.002, 1302.251 476.404 C 1302.620 475.805, 1303.413 472.657, 1304.012 469.408 C 1304.610 466.159, 1305.481 461.475, 1305.947 459 C 1307.283 451.893, 1310.841 435.117, 1312.522 428 C 1313.367 424.425, 1314.327 419.363, 1314.656 416.750 L 1315.254 412 992.162 412 C 685.467 412, 669.025 412.089, 668.167 413.750 M 455.500 433.656 C 449.450 435.639, 443.150 437.832, 441.500 438.531 C 439.850 439.230, 436.454 440.484, 433.954 441.319 C 431.454 442.154, 427.854 443.512, 425.954 444.335 C 421.447 446.290, 416.352 448.373, 412 450.042 C 405.691 452.461, 370.710 470.524, 361.100 476.325 C 355.930 479.446, 351.317 482, 350.850 482 C 350.382 482, 350 482.450, 350 483 C 350 483.550, 349.557 484, 349.016 484 C 347.315 484, 320.087 502.773, 310 510.901 C 285.184 530.896, 262.756 553.867, 244.153 578.340 C 237.304 587.350, 224 607.533, 224 608.913 C 224 609.511, 223.662 610.004, 223.250 610.008 C 222.838 610.012, 222.002 611.025, 221.394 612.258 C 220.785 613.491, 217.358 620.350, 213.777 627.500 C 206.761 641.508, 205.606 644.052, 201.739 654 C 197.731 664.312, 195.316 671.187, 194.187 675.500 C 193.611 677.700, 192.474 681.975, 191.660 685 C 190.846 688.025, 189.656 693.425, 189.015 697 C 188.373 700.575, 187.448 705.525, 186.959 708 C 184.470 720.589, 183.753 730.718, 183.707 754 C 183.659 778.096, 184.320 786.833, 187.109 799 C 187.676 801.475, 188.602 805.525, 189.167 808 C 189.732 810.475, 190.865 814.750, 191.686 817.500 C 192.506 820.250, 193.620 824.075, 194.160 826 C 195.097 829.335, 197.375 835.768, 200.711 844.500 C 201.552 846.700, 202.574 849.400, 202.983 850.500 C 203.392 851.600, 204.597 854.300, 205.662 856.500 L 207.597 860.500 281.384 860.756 C 321.967 860.898, 356.529 860.661, 358.188 860.231 L 361.205 859.449 349.097 847.261 C 331.311 829.358, 321.790 813.729, 314.101 789.812 C 311.282 781.042, 310.554 773.654, 310.623 754.500 C 310.713 729.553, 312 721.462, 318.973 702 C 322.243 692.874, 332.828 670.716, 334.180 670.167 C 334.631 669.983, 335 669.382, 335 668.830 C 335 667.832, 342.477 656.574, 348.836 648 C 355.487 639.031, 370.569 622.837, 380.207 614.317 C 390.546 605.177, 393.818 602.674, 408.500 592.673 C 418.369 585.950, 418.723 585.732, 431.442 578.500 C 440.828 573.163, 441.661 572.095, 443.140 563.500 C 444.253 557.030, 445.411 551.275, 447.467 542 C 448.382 537.875, 449.506 532.700, 449.966 530.500 C 450.427 528.300, 451.479 523.800, 452.304 520.500 C 453.130 517.200, 454.327 511.800, 454.964 508.500 C 455.601 505.200, 456.770 500.210, 457.561 497.412 C 458.352 494.614, 459 491.271, 459 489.983 C 459 488.695, 459.433 486.260, 459.962 484.571 C 460.863 481.692, 462.906 472.581, 466.591 455 C 467.456 450.875, 468.577 446.118, 469.082 444.429 C 469.587 442.740, 470.007 440.040, 470.015 438.429 C 470.024 436.818, 470.432 434.866, 470.923 434.091 C 472.233 432.021, 471.098 429.996, 468.643 430.026 C 467.464 430.040, 461.550 431.674, 455.500 433.656 M 920.276 567.250 C 919.369 568.421, 914.766 587.651, 912.856 598.250 C 911.006 608.513, 910.060 612.894, 907.510 623 C 906.053 628.775, 904.419 635.750, 903.879 638.500 C 903.339 641.250, 902.493 645.525, 902 648 C 901.507 650.475, 900.654 654.883, 900.105 657.795 C 899.556 660.707, 898.801 664.051, 898.428 665.226 C 897.571 667.928, 894.185 682.911, 892.943 689.500 C 890.916 700.251, 890.223 703.666, 889.188 708 C 888.597 710.475, 887.611 714.975, 886.998 718 C 886.384 721.025, 885.050 727.100, 884.033 731.500 C 883.016 735.900, 881.419 743.325, 880.484 748 C 879.548 752.675, 878.382 757.805, 877.891 759.399 C 877.401 760.994, 877 763.812, 877 765.663 C 877 767.513, 876.600 769.809, 876.112 770.764 C 875.623 771.719, 874.694 775.200, 874.047 778.500 C 873.400 781.800, 871.958 788.550, 870.842 793.500 C 868.822 802.457, 868.114 806.065, 866.130 817.500 C 865.558 820.800, 863.921 828, 862.494 833.500 C 859.586 844.703, 858.550 849.605, 855.150 868.264 C 854.573 871.435, 853.848 874.438, 853.539 874.937 C 853.230 875.437, 852.487 878.243, 851.888 881.173 C 851.289 884.103, 850.362 888.300, 849.829 890.500 C 849.296 892.700, 848.466 896.750, 847.983 899.500 C 846.857 905.919, 845.542 912.330, 844.188 918 C 843.597 920.475, 842.611 924.975, 841.998 928 C 841.384 931.025, 840.038 937.100, 839.007 941.500 C 837.975 945.900, 836.407 952.875, 835.521 957 C 834.636 961.125, 833.481 966.127, 832.955 968.116 C 832.430 970.105, 832 972.998, 832 974.545 C 832 976.092, 831.551 978.740, 831.002 980.429 C 829.486 985.091, 822.711 1016.629, 820.997 1027 C 820.497 1030.025, 818.909 1037, 817.468 1042.500 C 814.074 1055.449, 813.224 1058.851, 812.469 1062.500 C 812.128 1064.150, 811.481 1066.400, 811.030 1067.500 C 810.580 1068.600, 809.420 1071.750, 808.452 1074.500 C 799.955 1098.646, 784.919 1123.293, 770.250 1137.120 C 762.903 1144.046, 751.525 1153, 750.072 1153 C 749.574 1153, 749.017 1153.360, 748.833 1153.799 C 748.114 1155.524, 727.659 1164.698, 719 1167.178 C 702.919 1171.785, 672.868 1172.080, 652 1167.836 C 616.568 1160.630, 577.262 1132, 556.122 1098 C 548.065 1085.041, 537.239 1061.152, 535.275 1052 C 534.980 1050.625, 534.053 1048.712, 533.214 1047.750 C 531.792 1046.118, 527.412 1046, 468.045 1046 C 423.728 1046, 404.071 1046.329, 403.318 1047.082 C 402.650 1047.750, 402.542 1049.184, 403.037 1050.832 C 404.117 1054.425, 406.006 1061.925, 406.607 1065 C 408.843 1076.453, 419.452 1108.495, 424.982 1120.500 C 438.374 1149.571, 447.611 1164.762, 465.228 1186.686 C 474.257 1197.923, 492.733 1217.399, 502.523 1226 C 515.765 1237.634, 530.564 1249.114, 536.043 1252.004 C 537.394 1252.716, 538.725 1253.584, 539 1253.933 C 540.942 1256.391, 571.006 1273, 573.514 1273 C 574.331 1273, 575 1273.398, 575 1273.883 C 575 1274.369, 576.013 1274.991, 577.250 1275.265 C 578.487 1275.539, 583.100 1277.230, 587.500 1279.021 C 598.521 1283.509, 598.740 1283.587, 605.500 1285.480 C 608.800 1286.404, 612.625 1287.546, 614 1288.017 C 618.442 1289.540, 633.295 1292.741, 641 1293.836 C 661.805 1296.793, 671.160 1297.500, 689.500 1297.500 C 719.214 1297.500, 741.850 1293.976, 767.886 1285.297 C 781.442 1280.778, 801.286 1271.640, 808.496 1266.596 C 810.144 1265.443, 812.879 1263.753, 814.575 1262.839 C 823.037 1258.283, 842.461 1243.058, 857.032 1229.561 C 862.899 1224.128, 878.475 1206.221, 883.500 1199.134 C 885.150 1196.807, 887.885 1193.012, 889.579 1190.701 C 897.405 1180.021, 918 1141.706, 918 1137.827 C 918 1136.887, 918.400 1135.871, 918.889 1135.568 C 919.378 1135.266, 920.065 1133.878, 920.415 1132.483 C 920.765 1131.088, 922.106 1127.596, 923.395 1124.723 C 924.684 1121.851, 926.514 1116.800, 927.460 1113.500 C 928.407 1110.200, 929.653 1106.375, 930.230 1105 C 930.807 1103.625, 931.633 1100.925, 932.066 1099 C 932.498 1097.075, 933.799 1092.125, 934.956 1088 C 936.113 1083.875, 937.492 1078.250, 938.019 1075.500 C 938.546 1072.750, 939.693 1067.575, 940.567 1064 C 941.442 1060.425, 942.529 1055.250, 942.982 1052.500 C 943.436 1049.750, 944.498 1044.575, 945.343 1041 C 948.559 1027.398, 951.262 1015.326, 952.115 1010.750 C 952.602 1008.138, 953.395 1003.862, 953.879 1001.250 C 954.734 996.628, 957.483 984.184, 960.562 971 C 961.396 967.425, 962.491 962.250, 962.994 959.500 C 965.128 947.823, 965.892 944.071, 966.884 940.392 C 968.813 933.242, 971.220 922.557, 972.154 917 C 973.777 907.343, 974.679 902.625, 975.883 897.500 C 976.529 894.750, 977.464 890.475, 977.961 888 C 978.458 885.525, 979.821 879, 980.990 873.500 C 982.158 868, 983.582 861.025, 984.153 858 C 984.725 854.975, 985.824 850.390, 986.596 847.812 C 987.368 845.234, 988 842.038, 988 840.711 C 988 839.384, 988.397 836.994, 988.882 835.399 C 989.367 833.805, 990.740 827.775, 991.933 822 C 993.126 816.225, 994.591 809.475, 995.190 807 C 996.231 802.696, 997.037 798.510, 998.945 787.500 C 999.421 784.750, 1000.330 780.475, 1000.964 778 C 1001.598 775.525, 1003.029 769.450, 1004.145 764.500 C 1005.260 759.550, 1006.583 753.873, 1007.086 751.884 C 1007.589 749.895, 1008 747.227, 1008 745.955 C 1008 744.683, 1008.418 742.260, 1008.930 740.571 C 1010.166 736.487, 1016.119 709.819, 1017.205 703.500 C 1018.536 695.752, 1019.651 690.115, 1021.358 682.500 C 1022.221 678.650, 1023.198 674.150, 1023.528 672.500 C 1023.859 670.850, 1024.959 665.900, 1025.973 661.500 C 1026.987 657.100, 1028.328 650.800, 1028.951 647.500 C 1029.575 644.200, 1030.741 639.415, 1031.543 636.866 C 1032.344 634.317, 1032.998 631.167, 1032.996 629.866 C 1032.993 628.565, 1034.303 621.875, 1035.906 615 C 1040.811 593.959, 1041.107 592.645, 1041.992 588 C 1042.464 585.525, 1043.145 581.475, 1043.505 579 C 1043.865 576.525, 1044.629 573.262, 1045.202 571.749 C 1047.459 565.786, 1049.788 566, 982.500 566 C 934.679 566, 921.032 566.274, 920.276 567.250"/>
  </g>
</svg>
